# xmcd
#
# Track frame offsets: 
#        150
#        12675
#        25608
#        39508
#        53050
#        67239
#        82231
#        95516
#        110062
#        124720
#
# Disc length: 1868 seconds
#
# Revision: 0
# Processed by: cddbd v1.5.2PL0 Copyright (c) Steve Scherf et al.
# Submitted via: ExactAudioCopyFreeDBPlugin 1.0
#
DISCID=8a074a0a
DTITLE=Destan - Destan
DYEAR=2014
DGENRE=Pop
TTITLE0=Vole
TTITLE1=Les couleurs
TTITLE2=Tout ce qu'elle touche
TTITLE3=Sans toi
TTITLE4=Danger public
TTITLE5=L'amour n'est pas loin
TTITLE6=Au-delà des différences
TTITLE7=Si tu crois en moi
TTITLE8=Tant de choses à vivre
TTITLE9=Comme si
EXTD=
EXTT0=
EXTT1=
EXTT2=
EXTT3=
EXTT4=
EXTT5=
EXTT6=
EXTT7=
EXTT8=
EXTT9=
PLAYORDER=
